<svg width="100" height="100" viewBox="0 0 100 100" fill="none" xmlns="http://www.w3.org/2000/svg">
<g clip-path="url(#clip0_21_41)">
<rect width="100" height="100" rx="5" fill="white"/>
<path d="M49.064 74.024C44.456 74.024 40.5307 73.0213 37.288 71.016C34.0453 68.968 31.5707 66.216 29.864 62.76C28.1573 59.304 27.304 55.464 27.304 51.24C27.304 48.3387 27.752 45.4587 28.648 42.6C29.5867 39.7413 30.9733 37.16 32.808 34.856C34.6427 32.5093 36.9467 30.6533 39.72 29.288C42.536 27.88 45.8 27.176 49.512 27.176C50.664 27.176 51.9653 27.304 53.416 27.56C54.8667 27.7733 56.3173 28.1147 57.768 28.584C59.2613 29.0533 60.584 29.6293 61.736 30.312L61.48 27.624H66.408V42.536H62.248C61.864 40.1467 61.1173 38.1627 60.008 36.584C58.8987 35.0053 57.512 33.8107 55.848 33C54.184 32.1893 52.3493 31.784 50.344 31.784C48.1253 31.784 46.184 32.296 44.52 33.32C42.8987 34.344 41.5547 35.7093 40.488 37.416C39.4213 39.1227 38.6107 41.064 38.056 43.24C37.544 45.416 37.288 47.656 37.288 49.96C37.288 53.6293 37.8 56.8933 38.824 59.752C39.848 62.6107 41.3413 64.872 43.304 66.536C45.3093 68.1573 47.7627 68.968 50.664 68.968C51.4747 68.968 52.4347 68.904 53.544 68.776C54.6533 68.648 55.7627 68.456 56.872 68.2C57.9813 67.944 58.92 67.624 59.688 67.24V61.288C59.688 60.136 59.7093 59.0267 59.752 57.96C59.8373 56.8933 59.9013 56.0827 59.944 55.528C59.2613 55.5707 58.408 55.6133 57.384 55.656C56.36 55.656 55.6133 55.6773 55.144 55.72V50.792H72.168V55.016C71.4427 55.0587 70.8027 55.144 70.248 55.272C69.736 55.4 69.288 55.656 68.904 56.04C68.5627 56.3813 68.3067 56.9147 68.136 57.64C67.9653 58.3653 67.88 59.3467 67.88 60.584V70.824H66.344C65.1067 70.824 63.8693 70.9947 62.632 71.336C61.3947 71.6773 60.072 72.0613 58.664 72.488C57.3413 72.872 55.8907 73.2133 54.312 73.512C52.7333 73.8533 50.984 74.024 49.064 74.024Z" fill="black"/>
</g>
<defs>
<clipPath id="clip0_21_41">
<rect width="100" height="100" fill="white"/>
</clipPath>
</defs>
</svg>
