<svg width="100" height="100" viewBox="0 0 100 100" fill="none" xmlns="http://www.w3.org/2000/svg">
<path d="M50.064 74.024C45.456 74.024 41.5307 73.0213 38.288 71.016C35.0453 68.968 32.5707 66.216 30.864 62.76C29.1573 59.304 28.304 55.464 28.304 51.24C28.304 48.3387 28.752 45.4587 29.648 42.6C30.5867 39.7413 31.9733 37.16 33.808 34.856C35.6427 32.5093 37.9467 30.6533 40.72 29.288C43.536 27.88 46.8 27.176 50.512 27.176C51.664 27.176 52.9653 27.304 54.416 27.56C55.8667 27.7733 57.3173 28.1147 58.768 28.584C60.2613 29.0533 61.584 29.6293 62.736 30.312L62.48 27.624H67.408V42.536H63.248C62.864 40.1467 62.1173 38.1627 61.008 36.584C59.8987 35.0053 58.512 33.8107 56.848 33C55.184 32.1893 53.3493 31.784 51.344 31.784C49.1253 31.784 47.184 32.296 45.52 33.32C43.8987 34.344 42.5547 35.7093 41.488 37.416C40.4213 39.1227 39.6107 41.064 39.056 43.24C38.544 45.416 38.288 47.656 38.288 49.96C38.288 53.6293 38.8 56.8933 39.824 59.752C40.848 62.6107 42.3413 64.872 44.304 66.536C46.3093 68.1573 48.7627 68.968 51.664 68.968C52.4747 68.968 53.4347 68.904 54.544 68.776C55.6533 68.648 56.7627 68.456 57.872 68.2C58.9813 67.944 59.92 67.624 60.688 67.24V61.288C60.688 60.136 60.7093 59.0267 60.752 57.96C60.8373 56.8933 60.9013 56.0827 60.944 55.528C60.2613 55.5707 59.408 55.6133 58.384 55.656C57.36 55.656 56.6133 55.6773 56.144 55.72V50.792H73.168V55.016C72.4427 55.0587 71.8027 55.144 71.248 55.272C70.736 55.4 70.288 55.656 69.904 56.04C69.5627 56.3813 69.3067 56.9147 69.136 57.64C68.9653 58.3653 68.88 59.3467 68.88 60.584V70.824H67.344C66.1067 70.824 64.8693 70.9947 63.632 71.336C62.3947 71.6773 61.072 72.0613 59.664 72.488C58.3413 72.872 56.8907 73.2133 55.312 73.512C53.7333 73.8533 51.984 74.024 50.064 74.024Z" fill="black"/>
</svg>
